<svg width="193" height="159" viewBox="0 0 193 159" fill="none" xmlns="http://www.w3.org/2000/svg">
<g clip-path="url(#clip0)">
<path d="M12.3317 114.452C12.5934 113.706 13.7329 113.706 13.9947 114.452L14.5372 115.998C14.6542 116.332 14.9899 116.557 15.3686 116.557H17.1243C17.9712 116.557 18.3233 117.561 17.6381 118.022L16.2178 118.977C15.9114 119.183 15.7832 119.549 15.9002 119.882L16.4427 121.428C16.7044 122.174 15.7825 122.794 15.0974 122.333L13.6771 121.378C13.3706 121.172 12.9557 121.172 12.6493 121.378L11.229 122.333C10.5438 122.794 9.62192 122.174 9.88363 121.428L10.4261 119.882C10.5432 119.549 10.415 119.183 10.1086 118.977L8.68823 118.022C8.00306 117.561 8.35519 116.557 9.20211 116.557H10.9577C11.3365 116.557 11.6722 116.332 11.7892 115.998L12.3317 114.452Z" fill="#FFD8D8"/>
<path d="M47.8034 37.0594C48.0651 36.3135 49.2046 36.3135 49.4663 37.0594L50.0088 38.6054C50.1259 38.9389 50.4616 39.1648 50.8403 39.1648H52.5959C53.4428 39.1648 53.795 40.1682 53.1098 40.6292L51.6895 41.5847C51.3831 41.7908 51.2549 42.1562 51.3719 42.4898L51.9144 44.0358C52.1761 44.7816 51.2542 45.4018 50.5691 44.9408L49.1487 43.9853C48.8423 43.7792 48.4274 43.7792 48.121 43.9853L46.7007 44.9409C46.0155 45.4018 45.0936 44.7816 45.3553 44.0358L45.8978 42.4898C46.0149 42.1562 45.8867 41.7908 45.5802 41.5847L44.1599 40.6292C43.4747 40.1682 43.8269 39.1648 44.6738 39.1648H46.4294C46.8082 39.1648 47.1438 38.9389 47.2609 38.6054L47.8034 37.0594Z" fill="#FFD8D8"/>
<path d="M178.332 72.9148C178.593 72.169 179.733 72.169 179.995 72.9148L180.537 74.4609C180.654 74.7944 180.99 75.0202 181.369 75.0202H183.124C183.971 75.0202 184.323 76.0237 183.638 76.4847L182.218 77.4402C181.911 77.6463 181.783 78.0117 181.9 78.3452L182.443 79.8913C182.704 80.6371 181.783 81.2573 181.097 80.7963L179.677 79.8408C179.371 79.6347 178.956 79.6347 178.649 79.8408L177.229 80.7963C176.544 81.2573 175.622 80.6371 175.884 79.8913L176.426 78.3452C176.543 78.0117 176.415 77.6463 176.109 77.4402L174.688 76.4847C174.003 76.0237 174.355 75.0202 175.202 75.0202H176.958C177.336 75.0202 177.672 74.7944 177.789 74.4609L178.332 72.9148Z" fill="#FFD8D8"/>
<g clip-path="url(#clip1)">
<path d="M81.4614 184.306H60.4674H42L57.5859 93.2852L65.8659 113.214V165.975L81.4614 184.306Z" fill="#FFA1A1"/>
<path d="M132.447 184.307H61.3481L57.5859 93.2862L146.243 91.5742L132.447 184.307Z" fill="#FFC7C7"/>
<path d="M74.8104 63.7832C74.8104 63.7832 68.5154 70.6778 68.8152 81.769C69.1149 92.8602 88.6995 98.4558 99.2911 85.566C109.883 72.7761 74.8104 63.7832 74.8104 63.7832Z" fill="#3C4852"/>
<path d="M112.581 78.8707C112.581 78.8707 112.581 45.0974 112.581 32.9071C112.581 16.2203 69.4152 15.9205 69.4152 32.9071V60.8849C69.4152 71.2767 76.01 76.4726 86.2019 76.4726V84.3664C86.2019 107.989 102.194 107.452 105.419 91.8661C107.118 83.655 112.581 78.8707 112.581 78.8707Z" fill="#FFC472"/>
<path d="M75.21 47.3955C75.21 48.5946 74.6105 49.5938 73.8111 49.5938C73.0117 49.5938 72.4122 48.5946 72.4122 47.3955C72.4122 46.1965 73.0117 45.1973 73.8111 45.1973C74.6105 45.2972 75.21 46.1965 75.21 47.3955Z" fill="#3C4852"/>
<path d="M91.4971 47.3955C91.4971 48.5946 90.8976 49.5938 90.0982 49.5938C89.2988 49.5938 88.6993 48.5946 88.6993 47.3955C88.6993 46.1965 89.2988 45.1973 90.0982 45.1973C90.8976 45.2972 91.4971 46.1965 91.4971 47.3955Z" fill="#3C4852"/>
<path d="M92.9961 45.2965C92.8962 44.697 92.4965 44.0975 91.9969 43.5979C91.4973 43.1982 90.7979 42.8984 90.0984 42.8984C89.399 42.8984 88.6995 43.1982 88.1999 43.5979C87.9001 43.7977 87.7003 43.9975 87.5004 44.2973C87.3006 44.5971 87.2007 44.7969 87.1008 45.0967C87.4006 44.9968 87.7003 44.8968 88 44.7969C88.2998 44.697 88.4997 44.5971 88.7995 44.4971C89.2991 44.2973 89.7986 44.2973 90.1983 44.2973C90.9977 44.2973 91.897 44.697 92.9961 45.2965Z" fill="#3C4852"/>
<path d="M76.8086 45.2965C76.7087 44.697 76.309 44.0975 75.8094 43.5979C75.3098 43.1982 74.6103 42.8984 73.9109 42.8984C73.2114 42.8984 72.5119 43.1982 72.0123 43.5979C71.7126 43.7977 71.5128 43.9975 71.3129 44.2973C71.1131 44.5971 71.0132 44.7969 70.9132 45.0967C71.213 44.9968 71.5128 44.8968 71.8125 44.7969C72.1123 44.697 72.3121 44.5971 72.6119 44.4971C73.1115 44.2973 73.6111 44.2973 74.0108 44.2973C74.8101 44.1974 75.7095 44.697 76.8086 45.2965Z" fill="#3C4852"/>
<path opacity="0.7" d="M81.0047 64.1829C81.0047 64.1829 82.5036 66.8808 85.801 66.1814C89.3981 65.382 89.0984 61.8848 89.0984 61.8848C89.0984 61.8848 85.6011 64.6825 81.0047 64.1829Z" fill="#FFA95E"/>
<path d="M79.6064 63.2832C80.3058 64.2824 81.6048 64.7821 82.8039 64.882C84.0029 64.9819 85.3019 64.7821 86.5009 64.3824C87.7 63.8828 88.6992 63.1833 89.4985 62.1841C90.2979 61.1849 90.7975 60.0858 90.8975 58.8867C90.2979 59.8859 89.6984 60.8852 88.7991 61.5846C87.9998 62.284 87.1004 62.8835 86.0013 63.2832C85.0021 63.6829 83.903 63.8827 82.8039 63.9827C81.7048 64.0826 80.6056 63.9827 79.6064 63.2832Z" fill="#C87F1B"/>
<path d="M111.282 58.3867L113.18 50.6927C113.18 50.6927 100.091 47.0956 100.091 27.4112C100.091 27.4112 90.3982 35.5048 74.9104 34.6055C59.4227 33.7062 58.7232 27.9107 63.2196 24.5134C63.2196 24.5134 59.7224 19.3176 62.2204 18.3183C64.7185 17.3191 67.0166 18.3183 67.0166 18.3183C67.0166 18.3183 73.6115 1.93129 89.5988 0.632316C105.586 -0.666657 113.08 8.02646 113.08 8.02646C113.08 8.02646 140.359 15.7204 137.761 42.2993C136.761 52.891 132.465 66.0806 139.459 71.5762C146.354 77.1718 140.758 93.5588 114.879 91.6603C89.0992 89.8618 111.282 58.3867 111.282 58.3867Z" fill="#3C4852"/>
<path d="M85.1027 46.9949C85.1027 51.5913 88.5 55.3883 92.5967 55.3883C96.6935 55.3883 100.091 51.6912 100.091 46.9949C100.091 42.3985 96.6935 38.6016 92.5967 38.6016C88.5 38.7015 85.1027 42.3985 85.1027 46.9949Z" stroke="#3C4852" stroke-miterlimit="10" stroke-linecap="round" stroke-linejoin="round"/>
<path d="M73.5118 55.3883C69.3729 55.3883 66.0177 51.6304 66.0177 46.9949C66.0177 42.3594 69.3729 38.6016 73.5118 38.6016C77.6506 38.6016 81.0059 42.3594 81.0059 46.9949C81.0059 51.6304 77.6506 55.3883 73.5118 55.3883Z" stroke="#3C4852" stroke-miterlimit="10" stroke-linecap="round" stroke-linejoin="round"/>
<path d="M81.0057 46.9941H85.1025" stroke="#3C4852" stroke-miterlimit="10" stroke-linecap="round" stroke-linejoin="round"/>
<path d="M100.091 47.0944L113.58 44.3965" stroke="#3C4852" stroke-miterlimit="10" stroke-linecap="round" stroke-linejoin="round"/>
<path d="M111.281 58.387C111.281 58.387 116.977 59.5861 119.675 52.5916C122.573 45.0976 115.978 40.5012 112.48 44.3981L111.281 58.387Z" fill="#FFC472"/>
<path d="M99.1004 104.764C92.9619 109.89 83.3859 123.43 94.1896 136.58C99.1174 142.579 110.763 152.383 108.308 160.443C105.853 168.503 90.5065 178.738 90.5065 184.306" stroke="#4390FD" stroke-width="2"/>
<path d="M100.176 104.764C94.0367 109.89 84.4592 123.43 95.2646 136.58C100.057 142.414 111.841 151.852 109.385 159.913C106.93 167.973 90.9841 178.473 90.9841 184.306" stroke="#0264ED" stroke-width="2"/>
<circle cx="118.959" cy="60.3027" r="11.091" transform="rotate(23.4815 118.959 60.3027)" fill="#0264ED"/>
<circle cx="103.323" cy="96.2969" r="11.091" transform="rotate(23.4815 103.323 96.2969)" fill="#0264ED"/>
<rect x="113.822" y="57.1406" width="10.2379" height="40.9515" transform="rotate(23.4815 113.822 57.1406)" fill="#0264ED"/>
<circle cx="121.535" cy="61.0547" r="11.091" transform="rotate(23.4815 121.535 61.0547)" fill="#4390FD"/>
<circle cx="105.898" cy="97.0488" r="11.091" transform="rotate(23.4815 105.898 97.0488)" fill="#4390FD"/>
<rect x="116.397" y="57.8926" width="10.2379" height="40.9515" transform="rotate(23.4815 116.397 57.8926)" fill="#4390FD"/>
<path d="M106.797 100.015C101.398 102.414 103.198 108.613 105.597 113.211L115.794 107.813C116.238 105.595 115.197 102.959 113.395 101.215C111.947 99.8135 109.946 98.6151 106.797 100.015Z" fill="#FFC472"/>
<path d="M115.63 106.915L135.492 146.087L146.243 92.774L151.101 166.034L128.528 172.028L105.418 112.827L110.793 109.602L115.63 106.915Z" fill="#FFA1A1"/>
<path d="M151.102 166.033L135.516 146.685L136.591 140.773L151.102 166.033Z" fill="#FF7979"/>
</g>
</g>
<defs>
<clipPath id="clip0">
<rect width="193" height="158" fill="white" transform="matrix(-1 0 0 1 193 0.5)"/>
</clipPath>
<clipPath id="clip1">
<rect width="109" height="187" fill="white" transform="translate(42 0.5)"/>
</clipPath>
</defs>
</svg>